HIERARCHY
ROOT Hips
{
	OFFSET 0.000000 0.000000 0.000000 
	CHANNELS 6 Xposition Yposition Zposition Zrotation Yrotation Xrotation
	JOINT LeftUpLeg
	{
		OFFSET 1.363060 -1.794630 0.839290 
		CHANNELS 3 Zrotation Yrotation Xrotation
		JOINT LeftLeg
		{
			OFFSET 2.448110 -6.726130 0.000000 
			CHANNELS 3 Zrotation Yrotation Xrotation
			JOINT LeftFoot
			{
				OFFSET 2.562200 -7.039590 0.000000 
				CHANNELS 3 Zrotation Yrotation Xrotation
				JOINT LeftToeBase
				{
					OFFSET 0.157640 -0.433110 2.322550 
					CHANNELS 3 Zrotation Yrotation Xrotation
					End Site
					{
						OFFSET 0.000000 0.000000 0.000000 
					}
				}
			}
		}
	}
	JOINT RightUpLeg
	{
		OFFSET -1.305520 -1.794630 0.839290 
		CHANNELS 3 Zrotation Yrotation Xrotation
		JOINT RightLeg
		{
			OFFSET -2.542530 -6.985550 0.000000 
			CHANNELS 3 Zrotation Yrotation Xrotation
			JOINT RightFoot
			{
				OFFSET -2.568260 -7.056230 0.000000 
				CHANNELS 3 Zrotation Yrotation Xrotation
				JOINT RightToeBase
				{
					OFFSET -0.164730 -0.452590 2.363150 
					CHANNELS 3 Zrotation Yrotation Xrotation
					End Site
					{
						OFFSET 0.000000 0.000000 0.000000 
					}
				}
			}
		}
	}
	JOINT Spine
	{
		OFFSET 0.028270 2.035590 -0.193380 
		CHANNELS 3 Zrotation Yrotation Xrotation
		JOINT Spine1
		{
			OFFSET 0.056720 2.048850 -0.042750 
			CHANNELS 3 Zrotation Yrotation Xrotation
			JOINT Neck1
			{
				OFFSET -0.054170 1.746240 0.172020 
				CHANNELS 3 Zrotation Yrotation Xrotation
				JOINT Head
				{
					OFFSET 0.104070 1.761360 -0.123970 
					CHANNELS 3 Zrotation Yrotation Xrotation
					End Site
					{
						OFFSET 0.000000 0.000000 0.000000 
					}
				}
			}
			JOINT LeftArm
			{
				OFFSET 3.362410 1.200890 -0.311210 
				CHANNELS 3 Zrotation Yrotation Xrotation
				JOINT LeftForeArm
				{
					OFFSET 4.983000 -0.000000 -0.000000 
					CHANNELS 3 Zrotation Yrotation Xrotation
					JOINT LeftHand
					{
						OFFSET 3.483560 -0.000000 -0.000000 
						CHANNELS 3 Zrotation Yrotation Xrotation
						JOINT LeftHandIndex1
						{
							OFFSET 0.715260 -0.000000 -0.000000 
							CHANNELS 3 Zrotation Yrotation Xrotation
							End Site
							{
								OFFSET 0.000000 0.000000 0.000000 
							}
						}
					}
				}
			}
			JOINT RightArm
			{
				OFFSET -3.136600 1.374050 -0.404650 
				CHANNELS 3 Zrotation Yrotation Xrotation
				JOINT RightForeArm
				{
					OFFSET -5.241900 -0.000000 -0.000000 
					CHANNELS 3 Zrotation Yrotation Xrotation
					JOINT RightHand
					{
						OFFSET -3.444170 -0.000000 -0.000000 
						CHANNELS 3 Zrotation Yrotation Xrotation
						JOINT RightHandIndex1
						{
							OFFSET -0.622530 -0.000000 -0.000000 
							CHANNELS 3 Zrotation Yrotation Xrotation
							End Site
							{
								OFFSET 0.000000 0.000000 0.000000 
							}
						}
					}
				}
			}
		}
	}
}
MOTION
Frames: 13
Frame Time: 0.041667
1.867776 20.085538 -25.785773 -3.504194 5.858535 -25.451593 -74.500680 6.266384 31.958373 17.849363 2.234240 30.585955 -9.485071 -31.659709 -56.326175 2.522000 9.877700 28.581600 90.195211 -16.251129 30.368434 -13.929256 -7.180103 18.749356 -5.547459 8.423786 -70.507950 -0.000400 -0.133500 0.366800 -2.725392 -0.217834 86.408512 -2.314284 2.258443 -20.458069 21.369360 -5.560069 -27.721769 3.714800 -6.553900 1.459800 -107.846203 -9.667104 20.702989 39.459580 -49.353900 -3.981548 3.795183 0.977538 -9.989310 -7.125000 0.000000 0.000000 108.021288 -1.086481 23.652771 -45.251331 48.038260 -5.682000 4.338696 -12.360533 6.399284 7.125000 0.000000 0.000000 
1.853028 20.087912 -25.805989 -3.800657 6.166047 -24.584761 -74.952209 4.470711 30.406654 18.047625 2.143991 32.530644 -9.419277 -31.197616 -56.341734 2.518300 9.871100 28.560400 91.165381 -15.619481 29.631672 -13.982923 -7.355105 18.072282 -6.159003 6.686367 -70.473623 -0.028900 1.096600 -3.014600 -2.023638 -0.694739 86.346484 -2.738990 2.061698 -20.689957 22.151628 -5.323826 -28.190539 3.814600 -6.611200 1.382500 -107.677396 -9.559420 20.696963 39.779547 -49.668218 -4.125225 3.774284 1.210635 -10.357116 -7.125000 0.000000 0.000000 108.376990 -0.997508 23.039212 -44.913518 47.716070 -5.521949 4.216416 -12.299721 7.038828 7.125000 0.000000 0.000000 
1.843604 20.088703 -25.820881 -3.844187 6.585514 -23.895685 -75.429868 2.927886 29.040790 18.156729 2.112859 34.061815 -9.326325 -30.800157 -56.341946 2.404500 9.662100 27.889200 91.647534 -15.491857 29.269990 -14.021852 -7.416809 17.209435 -6.571226 5.405586 -70.428902 -0.092300 1.959600 -5.393900 -1.755738 -0.893130 86.327488 -2.836341 1.966881 -20.939976 22.570593 -5.302951 -28.155155 3.856300 -6.661500 1.372600 -107.603939 -9.462187 20.804360 39.928550 -49.837004 -4.237321 3.819248 1.396946 -10.609902 -7.125000 0.000000 0.000000 108.572430 -0.947189 22.548287 -44.697412 47.525305 -5.451118 4.084684 -12.347906 7.347995 7.125000 0.000000 0.000000 
1.843100 20.085825 -25.832464 -3.494605 7.749985 -22.890574 -76.765989 0.065743 26.773697 18.173424 2.208781 36.226574 -9.299388 -30.555036 -56.058528 2.424200 9.698700 28.006400 91.487401 -16.062222 29.181501 -14.137163 -7.335748 15.785899 -6.773740 4.453123 -70.189847 -0.068300 1.686000 -4.638600 -2.036872 -0.871990 86.426075 -2.433232 1.856404 -21.165379 22.207678 -5.866526 -26.980628 3.735800 -6.756500 1.521100 -107.602517 -9.443214 21.148061 39.912098 -49.862560 -4.267490 3.861652 1.417747 -10.856238 -7.125000 0.000000 0.000000 108.662182 -0.946300 22.050311 -44.638467 47.580639 -5.493337 4.054261 -12.551484 7.353305 7.125000 0.000000 0.000000 
1.839287 20.084386 -25.846133 -3.380422 8.715279 -21.747971 -77.822336 -2.932241 24.464646 18.214175 2.219829 38.427494 -9.262607 -30.229592 -55.870653 2.425800 9.701700 28.016000 91.762838 -16.139165 28.811582 -14.212878 -7.300998 14.591824 -7.082928 3.361734 -70.004215 -0.062100 1.607400 -4.421900 -1.878128 -1.112920 86.474264 -2.352807 1.661905 -21.378454 22.147062 -6.165377 -26.333664 3.681900 -6.826600 1.598300 -107.544933 -9.397575 21.391629 40.016271 -49.990528 -4.326998 3.860821 1.491606 -11.086781 -7.125000 0.000000 0.000000 108.810373 -0.932328 21.538594 -44.539811 47.550071 -5.497440 3.962664 -12.679342 7.449881 7.125000 0.000000 0.000000 
1.838208 20.083163 -25.857932 -3.266199 9.759196 -20.524938 -78.820747 -6.265199 21.974056 18.198513 2.257066 40.698383 -9.247502 -29.935162 -55.637329 2.465200 9.774400 28.249200 91.989233 -16.268425 28.467158 -14.275559 -7.219003 13.335008 -7.334025 2.451847 -69.830531 -0.040800 1.303500 -3.584300 -1.663698 -1.410356 86.531549 -2.288656 1.430912 -21.581675 22.003167 -6.483161 -25.620215 3.620200 -6.886100 1.684200 -107.494919 -9.360987 21.682082 40.104520 -50.096943 -4.364735 3.833615 1.534205 -11.263757 -7.125000 0.000000 0.000000 108.913907 -0.957161 21.064081 -44.517266 47.578697 -5.537033 3.862115 -12.821715 7.398749 7.125000 0.000000 0.000000 
1.839719 20.082660 -25.867572 -3.191733 10.781760 -19.312251 -79.609722 -9.703444 19.439523 18.121116 2.329957 42.942533 -9.262307 -29.684650 -55.377399 2.532100 9.896000 28.640500 92.187282 -16.430719 28.161594 -14.315478 -7.100088 12.070228 -7.532989 1.722449 -69.697191 -0.021700 0.951800 -2.616100 -1.370974 -1.760864 86.577350 -2.285005 1.174286 -21.752743 21.886297 -6.732539 -25.045575 3.573900 -6.931600 1.753400 -107.443201 -9.332186 22.000789 40.188744 -50.186839 -4.385891 3.780368 1.557674 -11.387391 -7.125000 0.000000 0.000000 108.976901 -1.017243 20.636277 -44.565887 47.649695 -5.602491 3.757625 -12.958460 7.223284 7.125000 0.000000 0.000000 
1.843460 20.083235 -25.874838 -3.174815 11.665437 -18.232006 -80.087029 -12.900150 17.063640 17.991285 2.441515 45.016881 -9.313488 -29.497680 -55.115872 2.604100 10.024800 29.057000 92.350987 -16.617251 27.921084 -14.324232 -6.964407 10.888251 -7.680337 1.177589 -69.608831 -0.011600 0.694100 -1.907400 -1.044840 -2.109375 86.595386 -2.359885 0.923269 -21.860587 21.888947 -6.856407 -24.762670 3.558000 -6.964700 1.788800 -107.376767 -9.313591 22.341121 40.278144 -50.262894 -4.395421 3.707171 1.566331 -11.464449 -7.125000 0.000000 0.000000 109.016709 -1.085983 20.245685 -44.652628 47.734407 -5.676283 3.648640 -13.074603 6.972730 7.125000 0.000000 0.000000 
1.849575 20.084674 -25.879586 -3.200910 12.367516 -17.374763 -80.274205 -15.599963 15.008516 17.829596 2.584012 46.815234 -9.407160 -29.401799 -54.860895 2.660200 10.123500 29.377600 92.451513 -16.852955 27.782657 -14.302712 -6.825216 9.821343 -7.781829 0.789405 -69.562612 -0.008300 0.587400 -1.614100 -0.758170 -2.397253 86.581421 -2.493072 0.703382 -21.878824 22.028708 -6.849854 -24.825277 3.573200 -6.992400 1.785300 -107.288993 -9.308281 22.699516 40.378835 -50.329199 -4.394880 3.615681 1.555945 -11.504214 -7.125000 0.000000 0.000000 109.049839 -1.137192 19.877947 -44.739247 47.802791 -5.739829 3.543095 -13.161038 6.698849 7.125000 0.000000 0.000000 
1.857273 20.086689 -25.882824 -3.253868 12.832865 -16.782153 -80.230551 -17.613162 13.384014 17.658661 2.736599 48.284156 -9.559882 -29.429354 -54.605038 2.685300 10.167300 29.520100 92.492657 -17.099662 27.741733 -14.259711 -6.704873 8.963161 -7.843792 0.541436 -69.543799 -0.010000 0.646900 -1.777800 -0.566638 -2.569527 86.546683 -2.649793 0.547905 -21.818480 22.247273 -6.758491 -25.162277 3.608400 -7.022500 1.751600 -107.181466 -9.313213 23.072494 40.494354 -50.394000 -4.386871 3.508423 1.524299 -11.513608 -7.125000 0.000000 0.000000 109.076728 -1.162426 19.526707 -44.820371 47.863011 -5.790315 3.457413 -13.216087 6.419944 7.125000 0.000000 0.000000 
1.865762 20.088487 -25.885270 -3.316878 13.137589 -16.342771 -80.082580 -19.172861 12.048591 17.487679 2.881977 49.504435 -9.785458 -29.599419 -54.320322 2.668500 10.138100 29.425000 92.517989 -17.297086 27.737652 -14.216738 -6.614240 8.304639 -7.901147 0.332542 -69.525888 -0.011700 0.697000 -1.915300 -0.454709 -2.652502 86.505644 -2.799920 0.442639 -21.699887 22.418797 -6.654040 -25.645978 3.641500 -7.060600 1.702500 -107.058886 -9.321144 23.453086 40.630524 -50.464164 -4.373989 3.389962 1.466691 -11.497283 -7.125000 0.000000 0.000000 109.099442 -1.155773 19.192125 -44.884461 47.911581 -5.825327 3.395734 -13.247892 6.145154 7.125000 0.000000 0.000000 
1.874899 20.089782 -25.887572 -3.363434 13.321344 -16.001156 -79.908724 -20.395527 10.941492 17.321072 3.014504 50.497687 -10.085957 -29.918717 -53.989277 2.604400 10.025400 29.058900 92.549389 -17.410142 27.751483 -14.193860 -6.549871 7.852168 -7.958203 0.151559 -69.529304 -0.011700 0.697100 -1.915800 -0.451911 -2.636232 86.471282 -2.902302 0.388615 -21.558548 22.464861 -6.586223 -26.160100 3.658700 -7.107200 1.650100 -106.928866 -9.319105 23.831276 40.788826 -50.548918 -4.365191 3.265222 1.405541 -11.471307 -7.125000 0.000000 0.000000 109.107887 -1.127943 18.896004 -44.940323 47.954281 -5.847938 3.349140 -13.254130 5.857706 7.125000 0.000000 0.000000 
1.884827 20.090502 -25.889946 -3.372929 13.391963 -15.771022 -79.759871 -21.255338 10.104222 17.166522 3.130284 51.233878 -10.448898 -30.373219 -53.610478 2.504500 9.846100 28.479700 92.561190 -17.458793 27.801059 -14.199133 -6.512052 7.632789 -8.000539 0.034414 -69.571142 -0.009800 0.638000 -1.753300 -0.564725 -2.519606 86.450147 -2.950111 0.386834 -21.431322 22.399252 -6.565799 -26.611585 3.661000 -7.155900 1.602500 -106.798904 -9.294719 24.210064 40.959677 -50.647945 -4.366754 3.144797 1.357014 -11.452587 -7.125000 0.000000 0.000000 109.090283 -1.095694 18.664131 -44.999063 47.988192 -5.858787 3.300660 -13.222856 5.548235 7.125000 0.000000 0.000000 
